<?xml version="1.0" encoding="UTF-8" standalone="no"?>
<!DOCTYPE svg PUBLIC "-//W3C//DTD SVG 1.1//EN"
 "http://www.w3.org/Graphics/SVG/1.1/DTD/svg11.dtd">
<!-- Generated by graphviz version 2.47.0 (20210316.0004)
 -->
<!-- Title: dependencies Pages: 1 -->
<svg width="924pt" height="355pt"
 viewBox="0.00 0.00 924.00 355.00" xmlns="http://www.w3.org/2000/svg" xmlns:xlink="http://www.w3.org/1999/xlink">
<g id="graph0" class="graph" transform="scale(1 1) rotate(0) translate(4 351)">
<title>dependencies</title>
<polygon fill="white" stroke="transparent" points="-4,4 -4,-351 920,-351 920,4 -4,4"/>
<text text-anchor="start" x="437.01" y="-42.4" font-family="Times-12" font-weight="bold" font-size="14.00">Legend</text>
<polygon fill="#ffffb3" stroke="transparent" points="224,-10 224,-30 244,-30 244,-10 224,-10"/>
<text text-anchor="start" x="247.63" y="-15.4" font-family="Times-12" font-size="14.00"> &#160;Declarations</text>
<polygon fill="#8dd3c7" stroke="transparent" points="337,-10 337,-30 357,-30 357,-10 337,-10"/>
<text text-anchor="start" x="360.73" y="-15.4" font-family="Times-12" font-size="14.00"> &#160;Module</text>
<polygon fill="#80b1d3" stroke="transparent" points="423,-10 423,-30 443,-30 443,-10 423,-10"/>
<text text-anchor="start" x="446.78" y="-15.4" font-family="Times-12" font-size="14.00"> &#160;Bootstrap</text>
<polygon fill="#fdb462" stroke="transparent" points="520,-10 520,-30 540,-30 540,-10 520,-10"/>
<text text-anchor="start" x="543.67" y="-15.4" font-family="Times-12" font-size="14.00"> &#160;Providers</text>
<polygon fill="#fb8072" stroke="transparent" points="616,-10 616,-30 636,-30 636,-10 616,-10"/>
<text text-anchor="start" x="639.73" y="-15.4" font-family="Times-12" font-size="14.00"> &#160;Exports</text>
<g id="clust1" class="cluster">
<title>cluster_AppModule</title>
<polygon fill="none" stroke="black" stroke-dasharray="1,5" points="320,-70 320,-339 610,-339 610,-70 320,-70"/>
</g>
<g id="clust3" class="cluster">
<title>cluster_AppModule_imports</title>
<polygon fill="none" stroke="black" points="466,-78 466,-274 590,-274 590,-78 466,-78"/>
</g>
<g id="clust6" class="cluster">
<title>cluster_AppModule_providers</title>
<polygon fill="none" stroke="black" points="328,-222 328,-274 458,-274 458,-222 328,-222"/>
</g>
<g id="clust7" class="cluster">
<title>cluster_AuthModule</title>
<polygon fill="none" stroke="black" stroke-dasharray="1,5" points="30,-70 30,-138 312,-138 312,-70 30,-70"/>
</g>
<g id="clust12" class="cluster">
<title>cluster_AuthModule_providers</title>
<polygon fill="none" stroke="black" points="38,-78 38,-130 304,-130 304,-78 38,-78"/>
</g>
<g id="clust13" class="cluster">
<title>cluster_PrismaModule</title>
<polygon fill="none" stroke="black" stroke-dasharray="1,5" points="618,-146 618,-214 908,-214 908,-146 618,-146"/>
</g>
<g id="clust16" class="cluster">
<title>cluster_PrismaModule_exports</title>
<polygon fill="none" stroke="black" points="784,-154 784,-206 900,-206 900,-154 784,-154"/>
</g>
<g id="clust18" class="cluster">
<title>cluster_PrismaModule_providers</title>
<polygon fill="none" stroke="black" points="626,-154 626,-206 776,-206 776,-154 626,-154"/>
</g>
<g id="clust19" class="cluster">
<title>cluster_UserModule</title>
<polygon fill="none" stroke="black" stroke-dasharray="1,5" points="8,-146 8,-214 312,-214 312,-146 8,-146"/>
</g>
<g id="clust24" class="cluster">
<title>cluster_UserModule_providers</title>
<polygon fill="none" stroke="black" points="16,-154 16,-206 304,-206 304,-154 16,-154"/>
</g>
<!-- AuthModule -->
<g id="node1" class="node">
<title>AuthModule</title>
<polygon fill="#8dd3c7" stroke="black" points="561.55,-198 558.55,-202 537.55,-202 534.55,-198 474.45,-198 474.45,-162 561.55,-162 561.55,-198"/>
<text text-anchor="middle" x="518" y="-175.8" font-family="Times,serif" font-size="14.00">AuthModule</text>
</g>
<!-- UserModule -->
<g id="node3" class="node">
<title>UserModule</title>
<polygon fill="#8dd3c7" stroke="black" points="559.98,-266 556.98,-270 535.98,-270 532.98,-266 474.02,-266 474.02,-230 559.98,-230 559.98,-266"/>
<text text-anchor="middle" x="517" y="-243.8" font-family="Times,serif" font-size="14.00">UserModule</text>
</g>
<!-- AuthModule&#45;&gt;UserModule -->
<g id="edge10" class="edge">
<title>AuthModule&#45;&gt;UserModule</title>
<path fill="none" stroke="black" d="M531.4,-198.22C531.4,-198.22 531.4,-219.73 531.4,-219.73"/>
<polygon fill="black" stroke="black" points="527.9,-219.73 531.4,-229.73 534.9,-219.73 527.9,-219.73"/>
</g>
<!-- AppModule -->
<g id="node4" class="node">
<title>AppModule</title>
<polygon fill="#8dd3c7" stroke="black" points="579.66,-331 576.66,-335 555.66,-335 552.66,-331 496.34,-331 496.34,-295 579.66,-295 579.66,-331"/>
<text text-anchor="middle" x="538" y="-308.8" font-family="Times,serif" font-size="14.00">AppModule</text>
</g>
<!-- AuthModule&#45;&gt;AppModule -->
<g id="edge1" class="edge">
<title>AuthModule&#45;&gt;AppModule</title>
<path fill="none" stroke="black" d="M561.9,-174C566.19,-174 569,-174 569,-174 569,-174 569,-284.83 569,-284.83"/>
<polygon fill="black" stroke="black" points="565.5,-284.83 569,-294.83 572.5,-284.83 565.5,-284.83"/>
</g>
<!-- PrismaModule -->
<g id="node2" class="node">
<title>PrismaModule</title>
<polygon fill="#8dd3c7" stroke="black" points="582.43,-122 579.43,-126 558.43,-126 555.43,-122 483.57,-122 483.57,-86 582.43,-86 582.43,-122"/>
<text text-anchor="middle" x="533" y="-99.8" font-family="Times,serif" font-size="14.00">PrismaModule</text>
</g>
<!-- PrismaModule&#45;&gt;AuthModule -->
<g id="edge5" class="edge">
<title>PrismaModule&#45;&gt;AuthModule</title>
<path fill="none" stroke="black" d="M522.78,-122.01C522.78,-122.01 522.78,-151.85 522.78,-151.85"/>
<polygon fill="black" stroke="black" points="519.28,-151.85 522.78,-161.85 526.28,-151.85 519.28,-151.85"/>
</g>
<!-- PrismaModule&#45;&gt;UserModule -->
<g id="edge11" class="edge">
<title>PrismaModule&#45;&gt;UserModule</title>
<path fill="none" stroke="black" d="M565.38,-122.24C565.38,-160.99 565.38,-248 565.38,-248 565.38,-248 564.87,-248 564.87,-248"/>
<polygon fill="black" stroke="black" points="570.21,-244.5 560.21,-248 570.21,-251.5 570.21,-244.5"/>
</g>
<!-- PrismaModule&#45;&gt;AppModule -->
<g id="edge2" class="edge">
<title>PrismaModule&#45;&gt;AppModule</title>
<path fill="none" stroke="black" d="M572.61,-122.18C572.61,-122.18 572.61,-284.71 572.61,-284.71"/>
<polygon fill="black" stroke="black" points="569.11,-284.71 572.61,-294.71 576.11,-284.71 569.11,-284.71"/>
</g>
<!-- PrismaService  -->
<g id="node8" class="node">
<title>PrismaService </title>
<polygon fill="#fb8072" stroke="black" points="892.36,-198 791.64,-198 791.64,-162 892.36,-162 892.36,-198"/>
<text text-anchor="middle" x="842" y="-175.8" font-family="Times,serif" font-size="14.00">PrismaService </text>
</g>
<!-- PrismaModule&#45;&gt;PrismaService  -->
<g id="edge8" class="edge">
<title>PrismaModule&#45;&gt;PrismaService </title>
<path fill="none" stroke="black" stroke-dasharray="5,2" d="M582.3,-104C669.54,-104 842,-104 842,-104 842,-104 842,-151.99 842,-151.99"/>
<polygon fill="black" stroke="black" points="838.5,-151.99 842,-161.99 845.5,-151.99 838.5,-151.99"/>
</g>
<!-- UserModule&#45;&gt;AppModule -->
<g id="edge3" class="edge">
<title>UserModule&#45;&gt;AppModule</title>
<path fill="none" stroke="black" d="M528.08,-266.11C528.08,-266.11 528.08,-284.99 528.08,-284.99"/>
<polygon fill="black" stroke="black" points="524.58,-284.99 528.08,-294.99 531.58,-284.99 524.58,-284.99"/>
</g>
<!-- AppService -->
<g id="node5" class="node">
<title>AppService</title>
<ellipse fill="#fdb462" stroke="black" cx="393" cy="-248" rx="56.74" ry="18"/>
<text text-anchor="middle" x="393" y="-243.8" font-family="Times,serif" font-size="14.00">AppService</text>
</g>
<!-- AppService&#45;&gt;AppModule -->
<g id="edge4" class="edge">
<title>AppService&#45;&gt;AppModule</title>
<path fill="none" stroke="black" d="M393,-266.11C393,-285.34 393,-313 393,-313 393,-313 486.06,-313 486.06,-313"/>
<polygon fill="black" stroke="black" points="486.06,-316.5 496.06,-313 486.06,-309.5 486.06,-316.5"/>
</g>
<!-- AuthService -->
<g id="node6" class="node">
<title>AuthService</title>
<ellipse fill="#fdb462" stroke="black" cx="237" cy="-104" rx="59.11" ry="18"/>
<text text-anchor="middle" x="237" y="-99.8" font-family="Times,serif" font-size="14.00">AuthService</text>
</g>
<!-- AuthService&#45;&gt;AuthModule -->
<g id="edge6" class="edge">
<title>AuthService&#45;&gt;AuthModule</title>
<path fill="none" stroke="black" d="M296.59,-104C368.71,-104 480.6,-104 480.6,-104 480.6,-104 480.6,-151.99 480.6,-151.99"/>
<polygon fill="black" stroke="black" points="477.1,-151.99 480.6,-161.99 484.1,-151.99 477.1,-151.99"/>
</g>
<!-- JwtStrategy -->
<g id="node7" class="node">
<title>JwtStrategy</title>
<ellipse fill="#fdb462" stroke="black" cx="103" cy="-104" rx="56.76" ry="18"/>
<text text-anchor="middle" x="103" y="-99.8" font-family="Times,serif" font-size="14.00">JwtStrategy</text>
</g>
<!-- JwtStrategy&#45;&gt;AuthModule -->
<g id="edge7" class="edge">
<title>JwtStrategy&#45;&gt;AuthModule</title>
<path fill="none" stroke="black" d="M149.13,-114.79C149.13,-126.02 149.13,-142 149.13,-142 149.13,-142 477.41,-142 477.41,-142 477.41,-142 477.41,-151.89 477.41,-151.89"/>
<polygon fill="black" stroke="black" points="473.91,-151.89 477.41,-161.89 480.91,-151.89 473.91,-151.89"/>
</g>
<!-- PrismaService -->
<g id="node9" class="node">
<title>PrismaService</title>
<ellipse fill="#fdb462" stroke="black" cx="701" cy="-180" rx="66.63" ry="18"/>
<text text-anchor="middle" x="701" y="-175.8" font-family="Times,serif" font-size="14.00">PrismaService</text>
</g>
<!-- PrismaService&#45;&gt;PrismaModule -->
<g id="edge9" class="edge">
<title>PrismaService&#45;&gt;PrismaModule</title>
<path fill="none" stroke="black" d="M637.88,-186C606.93,-186 576.22,-186 576.22,-186 576.22,-186 576.22,-132.2 576.22,-132.2"/>
<polygon fill="black" stroke="black" points="579.72,-132.2 576.22,-122.2 572.72,-132.2 579.72,-132.2"/>
</g>
<!-- UserController -->
<g id="node10" class="node">
<title>UserController</title>
<ellipse fill="#fdb462" stroke="black" cx="227" cy="-180" rx="68.92" ry="18"/>
<text text-anchor="middle" x="227" y="-175.8" font-family="Times,serif" font-size="14.00">UserController</text>
</g>
<!-- UserController&#45;&gt;UserModule -->
<g id="edge12" class="edge">
<title>UserController&#45;&gt;UserModule</title>
<path fill="none" stroke="black" d="M296.18,-180C365.45,-180 461.82,-180 461.82,-180 461.82,-180 461.82,-248 461.82,-248 461.82,-248 463.79,-248 463.79,-248"/>
<polygon fill="black" stroke="black" points="463.79,-251.5 473.79,-248 463.79,-244.5 463.79,-251.5"/>
</g>
<!-- UserService -->
<g id="node11" class="node">
<title>UserService</title>
<ellipse fill="#fdb462" stroke="black" cx="82" cy="-180" rx="58.44" ry="18"/>
<text text-anchor="middle" x="82" y="-175.8" font-family="Times,serif" font-size="14.00">UserService</text>
</g>
<!-- UserService&#45;&gt;UserModule -->
<g id="edge13" class="edge">
<title>UserService&#45;&gt;UserModule</title>
<path fill="none" stroke="black" d="M82,-198.19C82,-206.28 82,-214 82,-214 82,-214 502.81,-214 502.81,-214 502.81,-214 502.81,-219.81 502.81,-219.81"/>
<polygon fill="black" stroke="black" points="499.31,-219.81 502.81,-229.81 506.31,-219.81 499.31,-219.81"/>
</g>
</g>
</svg>
