<?xml version="1.0" encoding="UTF-8" standalone="no"?>
<!DOCTYPE svg PUBLIC "-//W3C//DTD SVG 1.1//EN"
 "http://www.w3.org/Graphics/SVG/1.1/DTD/svg11.dtd">
<!-- Generated by graphviz version 2.47.0 (20210316.0004)
 -->
<!-- Title: dependencies Pages: 1 -->
<svg width="902pt" height="355pt"
 viewBox="0.00 0.00 902.00 355.00" xmlns="http://www.w3.org/2000/svg" xmlns:xlink="http://www.w3.org/1999/xlink">
<g id="graph0" class="graph" transform="scale(1 1) rotate(0) translate(4 351)">
<title>dependencies</title>
<polygon fill="white" stroke="transparent" points="-4,4 -4,-351 898,-351 898,4 -4,4"/>
<text text-anchor="start" x="426.01" y="-42.4" font-family="Times-12" font-weight="bold" font-size="14.00">Legend</text>
<polygon fill="#ffffb3" stroke="transparent" points="213,-10 213,-30 233,-30 233,-10 213,-10"/>
<text text-anchor="start" x="236.63" y="-15.4" font-family="Times-12" font-size="14.00"> &#160;Declarations</text>
<polygon fill="#8dd3c7" stroke="transparent" points="326,-10 326,-30 346,-30 346,-10 326,-10"/>
<text text-anchor="start" x="349.73" y="-15.4" font-family="Times-12" font-size="14.00"> &#160;Module</text>
<polygon fill="#80b1d3" stroke="transparent" points="412,-10 412,-30 432,-30 432,-10 412,-10"/>
<text text-anchor="start" x="435.78" y="-15.4" font-family="Times-12" font-size="14.00"> &#160;Bootstrap</text>
<polygon fill="#fdb462" stroke="transparent" points="509,-10 509,-30 529,-30 529,-10 509,-10"/>
<text text-anchor="start" x="532.67" y="-15.4" font-family="Times-12" font-size="14.00"> &#160;Providers</text>
<polygon fill="#fb8072" stroke="transparent" points="605,-10 605,-30 625,-30 625,-10 605,-10"/>
<text text-anchor="start" x="628.73" y="-15.4" font-family="Times-12" font-size="14.00"> &#160;Exports</text>
<g id="clust1" class="cluster">
<title>cluster_AppModule</title>
<polygon fill="none" stroke="black" stroke-dasharray="1,5" points="298,-70 298,-339 588,-339 588,-70 298,-70"/>
</g>
<g id="clust3" class="cluster">
<title>cluster_AppModule_imports</title>
<polygon fill="none" stroke="black" points="444,-78 444,-274 568,-274 568,-78 444,-78"/>
</g>
<g id="clust6" class="cluster">
<title>cluster_AppModule_providers</title>
<polygon fill="none" stroke="black" points="306,-222 306,-274 436,-274 436,-222 306,-222"/>
</g>
<g id="clust7" class="cluster">
<title>cluster_AuthModule</title>
<polygon fill="none" stroke="black" stroke-dasharray="1,5" points="8,-70 8,-138 290,-138 290,-70 8,-70"/>
</g>
<g id="clust12" class="cluster">
<title>cluster_AuthModule_providers</title>
<polygon fill="none" stroke="black" points="16,-78 16,-130 282,-130 282,-78 16,-78"/>
</g>
<g id="clust13" class="cluster">
<title>cluster_PrismaModule</title>
<polygon fill="none" stroke="black" stroke-dasharray="1,5" points="596,-146 596,-214 886,-214 886,-146 596,-146"/>
</g>
<g id="clust16" class="cluster">
<title>cluster_PrismaModule_exports</title>
<polygon fill="none" stroke="black" points="762,-154 762,-206 878,-206 878,-154 762,-154"/>
</g>
<g id="clust18" class="cluster">
<title>cluster_PrismaModule_providers</title>
<polygon fill="none" stroke="black" points="604,-154 604,-206 754,-206 754,-154 604,-154"/>
</g>
<g id="clust19" class="cluster">
<title>cluster_UserModule</title>
<polygon fill="none" stroke="black" stroke-dasharray="1,5" points="142,-146 142,-214 290,-214 290,-146 142,-146"/>
</g>
<g id="clust24" class="cluster">
<title>cluster_UserModule_providers</title>
<polygon fill="none" stroke="black" points="150,-154 150,-206 282,-206 282,-154 150,-154"/>
</g>
<!-- AuthModule -->
<g id="node1" class="node">
<title>AuthModule</title>
<polygon fill="#8dd3c7" stroke="black" points="539.55,-198 536.55,-202 515.55,-202 512.55,-198 452.45,-198 452.45,-162 539.55,-162 539.55,-198"/>
<text text-anchor="middle" x="496" y="-175.8" font-family="Times,serif" font-size="14.00">AuthModule</text>
</g>
<!-- UserModule -->
<g id="node3" class="node">
<title>UserModule</title>
<polygon fill="#8dd3c7" stroke="black" points="537.98,-266 534.98,-270 513.98,-270 510.98,-266 452.02,-266 452.02,-230 537.98,-230 537.98,-266"/>
<text text-anchor="middle" x="495" y="-243.8" font-family="Times,serif" font-size="14.00">UserModule</text>
</g>
<!-- AuthModule&#45;&gt;UserModule -->
<g id="edge10" class="edge">
<title>AuthModule&#45;&gt;UserModule</title>
<path fill="none" stroke="black" d="M495.11,-198.22C495.11,-198.22 495.11,-219.73 495.11,-219.73"/>
<polygon fill="black" stroke="black" points="491.61,-219.73 495.11,-229.73 498.61,-219.73 491.61,-219.73"/>
</g>
<!-- AppModule -->
<g id="node4" class="node">
<title>AppModule</title>
<polygon fill="#8dd3c7" stroke="black" points="557.66,-331 554.66,-335 533.66,-335 530.66,-331 474.34,-331 474.34,-295 557.66,-295 557.66,-331"/>
<text text-anchor="middle" x="516" y="-308.8" font-family="Times,serif" font-size="14.00">AppModule</text>
</g>
<!-- AuthModule&#45;&gt;AppModule -->
<g id="edge1" class="edge">
<title>AuthModule&#45;&gt;AppModule</title>
<path fill="none" stroke="black" d="M539.9,-174C544.19,-174 547,-174 547,-174 547,-174 547,-284.83 547,-284.83"/>
<polygon fill="black" stroke="black" points="543.5,-284.83 547,-294.83 550.5,-284.83 543.5,-284.83"/>
</g>
<!-- PrismaModule -->
<g id="node2" class="node">
<title>PrismaModule</title>
<polygon fill="#8dd3c7" stroke="black" points="560.43,-122 557.43,-126 536.43,-126 533.43,-122 461.57,-122 461.57,-86 560.43,-86 560.43,-122"/>
<text text-anchor="middle" x="511" y="-99.8" font-family="Times,serif" font-size="14.00">PrismaModule</text>
</g>
<!-- PrismaModule&#45;&gt;AuthModule -->
<g id="edge5" class="edge">
<title>PrismaModule&#45;&gt;AuthModule</title>
<path fill="none" stroke="black" d="M500.78,-122.01C500.78,-122.01 500.78,-151.85 500.78,-151.85"/>
<polygon fill="black" stroke="black" points="497.28,-151.85 500.78,-161.85 504.28,-151.85 497.28,-151.85"/>
</g>
<!-- PrismaModule&#45;&gt;UserModule -->
<g id="edge11" class="edge">
<title>PrismaModule&#45;&gt;UserModule</title>
<path fill="none" stroke="black" d="M543.38,-122.24C543.38,-160.99 543.38,-248 543.38,-248 543.38,-248 542.87,-248 542.87,-248"/>
<polygon fill="black" stroke="black" points="548.21,-244.5 538.21,-248 548.21,-251.5 548.21,-244.5"/>
</g>
<!-- PrismaModule&#45;&gt;AppModule -->
<g id="edge2" class="edge">
<title>PrismaModule&#45;&gt;AppModule</title>
<path fill="none" stroke="black" d="M550.61,-122.18C550.61,-122.18 550.61,-284.71 550.61,-284.71"/>
<polygon fill="black" stroke="black" points="547.11,-284.71 550.61,-294.71 554.11,-284.71 547.11,-284.71"/>
</g>
<!-- PrismaService  -->
<g id="node8" class="node">
<title>PrismaService </title>
<polygon fill="#fb8072" stroke="black" points="870.36,-198 769.64,-198 769.64,-162 870.36,-162 870.36,-198"/>
<text text-anchor="middle" x="820" y="-175.8" font-family="Times,serif" font-size="14.00">PrismaService </text>
</g>
<!-- PrismaModule&#45;&gt;PrismaService  -->
<g id="edge8" class="edge">
<title>PrismaModule&#45;&gt;PrismaService </title>
<path fill="none" stroke="black" stroke-dasharray="5,2" d="M560.3,-104C647.54,-104 820,-104 820,-104 820,-104 820,-151.99 820,-151.99"/>
<polygon fill="black" stroke="black" points="816.5,-151.99 820,-161.99 823.5,-151.99 816.5,-151.99"/>
</g>
<!-- UserModule&#45;&gt;AppModule -->
<g id="edge3" class="edge">
<title>UserModule&#45;&gt;AppModule</title>
<path fill="none" stroke="black" d="M506.08,-266.11C506.08,-266.11 506.08,-284.99 506.08,-284.99"/>
<polygon fill="black" stroke="black" points="502.58,-284.99 506.08,-294.99 509.58,-284.99 502.58,-284.99"/>
</g>
<!-- AppService -->
<g id="node5" class="node">
<title>AppService</title>
<ellipse fill="#fdb462" stroke="black" cx="371" cy="-248" rx="56.74" ry="18"/>
<text text-anchor="middle" x="371" y="-243.8" font-family="Times,serif" font-size="14.00">AppService</text>
</g>
<!-- AppService&#45;&gt;AppModule -->
<g id="edge4" class="edge">
<title>AppService&#45;&gt;AppModule</title>
<path fill="none" stroke="black" d="M371,-266.11C371,-285.34 371,-313 371,-313 371,-313 464.06,-313 464.06,-313"/>
<polygon fill="black" stroke="black" points="464.06,-316.5 474.06,-313 464.06,-309.5 464.06,-316.5"/>
</g>
<!-- AuthService -->
<g id="node6" class="node">
<title>AuthService</title>
<ellipse fill="#fdb462" stroke="black" cx="215" cy="-104" rx="59.11" ry="18"/>
<text text-anchor="middle" x="215" y="-99.8" font-family="Times,serif" font-size="14.00">AuthService</text>
</g>
<!-- AuthService&#45;&gt;AuthModule -->
<g id="edge6" class="edge">
<title>AuthService&#45;&gt;AuthModule</title>
<path fill="none" stroke="black" d="M274.59,-104C346.71,-104 458.6,-104 458.6,-104 458.6,-104 458.6,-151.99 458.6,-151.99"/>
<polygon fill="black" stroke="black" points="455.1,-151.99 458.6,-161.99 462.1,-151.99 455.1,-151.99"/>
</g>
<!-- JwtStrategy -->
<g id="node7" class="node">
<title>JwtStrategy</title>
<ellipse fill="#fdb462" stroke="black" cx="81" cy="-104" rx="56.76" ry="18"/>
<text text-anchor="middle" x="81" y="-99.8" font-family="Times,serif" font-size="14.00">JwtStrategy</text>
</g>
<!-- JwtStrategy&#45;&gt;AuthModule -->
<g id="edge7" class="edge">
<title>JwtStrategy&#45;&gt;AuthModule</title>
<path fill="none" stroke="black" d="M81,-122.11C81,-131.9 81,-142 81,-142 81,-142 455.41,-142 455.41,-142 455.41,-142 455.41,-151.89 455.41,-151.89"/>
<polygon fill="black" stroke="black" points="451.91,-151.89 455.41,-161.89 458.91,-151.89 451.91,-151.89"/>
</g>
<!-- PrismaService -->
<g id="node9" class="node">
<title>PrismaService</title>
<ellipse fill="#fdb462" stroke="black" cx="679" cy="-180" rx="66.63" ry="18"/>
<text text-anchor="middle" x="679" y="-175.8" font-family="Times,serif" font-size="14.00">PrismaService</text>
</g>
<!-- PrismaService&#45;&gt;PrismaModule -->
<g id="edge9" class="edge">
<title>PrismaService&#45;&gt;PrismaModule</title>
<path fill="none" stroke="black" d="M615.88,-186C584.93,-186 554.22,-186 554.22,-186 554.22,-186 554.22,-132.2 554.22,-132.2"/>
<polygon fill="black" stroke="black" points="557.72,-132.2 554.22,-122.2 550.72,-132.2 557.72,-132.2"/>
</g>
<!-- UserService -->
<g id="node10" class="node">
<title>UserService</title>
<ellipse fill="#fdb462" stroke="black" cx="216" cy="-180" rx="58.44" ry="18"/>
<text text-anchor="middle" x="216" y="-175.8" font-family="Times,serif" font-size="14.00">UserService</text>
</g>
<!-- UserService&#45;&gt;UserModule -->
<g id="edge12" class="edge">
<title>UserService&#45;&gt;UserModule</title>
<path fill="none" stroke="black" d="M274.22,-180C340.54,-180 439.82,-180 439.82,-180 439.82,-180 439.82,-248 439.82,-248 439.82,-248 441.79,-248 441.79,-248"/>
<polygon fill="black" stroke="black" points="441.79,-251.5 451.79,-248 441.79,-244.5 441.79,-251.5"/>
</g>
</g>
</svg>
