<?xml version="1.0" encoding="UTF-8" standalone="no"?>
<!DOCTYPE svg PUBLIC "-//W3C//DTD SVG 1.1//EN"
 "http://www.w3.org/Graphics/SVG/1.1/DTD/svg11.dtd">
<!-- Generated by graphviz version 2.47.0 (20210316.0004)
 -->
<!-- Title: dependencies Pages: 1 -->
<svg width="1304pt" height="431pt"
 viewBox="0.00 0.00 1304.00 431.00" xmlns="http://www.w3.org/2000/svg" xmlns:xlink="http://www.w3.org/1999/xlink">
<g id="graph0" class="graph" transform="scale(1 1) rotate(0) translate(4 427)">
<title>dependencies</title>
<polygon fill="white" stroke="transparent" points="-4,4 -4,-427 1300,-427 1300,4 -4,4"/>
<text text-anchor="start" x="627.01" y="-42.4" font-family="Times-12" font-weight="bold" font-size="14.00">Legend</text>
<polygon fill="#ffffb3" stroke="transparent" points="414,-10 414,-30 434,-30 434,-10 414,-10"/>
<text text-anchor="start" x="437.63" y="-15.4" font-family="Times-12" font-size="14.00"> &#160;Declarations</text>
<polygon fill="#8dd3c7" stroke="transparent" points="527,-10 527,-30 547,-30 547,-10 527,-10"/>
<text text-anchor="start" x="550.73" y="-15.4" font-family="Times-12" font-size="14.00"> &#160;Module</text>
<polygon fill="#80b1d3" stroke="transparent" points="613,-10 613,-30 633,-30 633,-10 613,-10"/>
<text text-anchor="start" x="636.78" y="-15.4" font-family="Times-12" font-size="14.00"> &#160;Bootstrap</text>
<polygon fill="#fdb462" stroke="transparent" points="710,-10 710,-30 730,-30 730,-10 710,-10"/>
<text text-anchor="start" x="733.67" y="-15.4" font-family="Times-12" font-size="14.00"> &#160;Providers</text>
<polygon fill="#fb8072" stroke="transparent" points="806,-10 806,-30 826,-30 826,-10 806,-10"/>
<text text-anchor="start" x="829.73" y="-15.4" font-family="Times-12" font-size="14.00"> &#160;Exports</text>
<g id="clust1" class="cluster">
<title>cluster_AppModule</title>
<polygon fill="none" stroke="black" stroke-dasharray="1,5" points="306,-146 306,-415 792,-415 792,-146 306,-146"/>
</g>
<g id="clust3" class="cluster">
<title>cluster_AppModule_imports</title>
<polygon fill="none" stroke="black" points="452,-154 452,-350 784,-350 784,-154 452,-154"/>
</g>
<g id="clust6" class="cluster">
<title>cluster_AppModule_providers</title>
<polygon fill="none" stroke="black" points="314,-298 314,-350 444,-350 444,-298 314,-298"/>
</g>
<g id="clust7" class="cluster">
<title>cluster_AuthModule</title>
<polygon fill="none" stroke="black" stroke-dasharray="1,5" points="800,-146 800,-214 1082,-214 1082,-146 800,-146"/>
</g>
<g id="clust12" class="cluster">
<title>cluster_AuthModule_providers</title>
<polygon fill="none" stroke="black" points="808,-154 808,-206 1074,-206 1074,-154 808,-154"/>
</g>
<g id="clust13" class="cluster">
<title>cluster_BookModule</title>
<polygon fill="none" stroke="black" stroke-dasharray="1,5" points="544,-70 544,-138 698,-138 698,-70 544,-70"/>
</g>
<g id="clust18" class="cluster">
<title>cluster_BookModule_providers</title>
<polygon fill="none" stroke="black" points="552,-78 552,-130 690,-130 690,-78 552,-78"/>
</g>
<g id="clust19" class="cluster">
<title>cluster_OrderModule</title>
<polygon fill="none" stroke="black" stroke-dasharray="1,5" points="706,-70 706,-138 998,-138 998,-70 706,-70"/>
</g>
<g id="clust24" class="cluster">
<title>cluster_OrderModule_providers</title>
<polygon fill="none" stroke="black" points="714,-78 714,-130 990,-130 990,-78 714,-78"/>
</g>
<g id="clust25" class="cluster">
<title>cluster_PrismaModule</title>
<polygon fill="none" stroke="black" stroke-dasharray="1,5" points="8,-222 8,-290 298,-290 298,-222 8,-222"/>
</g>
<g id="clust28" class="cluster">
<title>cluster_PrismaModule_exports</title>
<polygon fill="none" stroke="black" points="174,-230 174,-282 290,-282 290,-230 174,-230"/>
</g>
<g id="clust30" class="cluster">
<title>cluster_PrismaModule_providers</title>
<polygon fill="none" stroke="black" points="16,-230 16,-282 166,-282 166,-230 16,-230"/>
</g>
<g id="clust31" class="cluster">
<title>cluster_UserModule</title>
<polygon fill="none" stroke="black" stroke-dasharray="1,5" points="1118,-222 1118,-290 1288,-290 1288,-222 1118,-222"/>
</g>
<g id="clust36" class="cluster">
<title>cluster_UserModule_providers</title>
<polygon fill="none" stroke="black" points="1126,-230 1126,-282 1280,-282 1280,-230 1126,-230"/>
</g>
<!-- AuthModule -->
<g id="node1" class="node">
<title>AuthModule</title>
<polygon fill="#8dd3c7" stroke="black" points="771.55,-274 768.55,-278 747.55,-278 744.55,-274 684.45,-274 684.45,-238 771.55,-238 771.55,-274"/>
<text text-anchor="middle" x="728" y="-251.8" font-family="Times,serif" font-size="14.00">AuthModule</text>
</g>
<!-- UserModule -->
<g id="node5" class="node">
<title>UserModule</title>
<polygon fill="#8dd3c7" stroke="black" points="770.98,-342 767.98,-346 746.98,-346 743.98,-342 685.02,-342 685.02,-306 770.98,-306 770.98,-342"/>
<text text-anchor="middle" x="728" y="-319.8" font-family="Times,serif" font-size="14.00">UserModule</text>
</g>
<!-- AuthModule&#45;&gt;UserModule -->
<g id="edge16" class="edge">
<title>AuthModule&#45;&gt;UserModule</title>
<path fill="none" stroke="black" d="M728,-274.22C728,-274.22 728,-295.73 728,-295.73"/>
<polygon fill="black" stroke="black" points="724.5,-295.73 728,-305.73 731.5,-295.73 724.5,-295.73"/>
</g>
<!-- AppModule -->
<g id="node6" class="node">
<title>AppModule</title>
<polygon fill="#8dd3c7" stroke="black" points="673.66,-407 670.66,-411 649.66,-411 646.66,-407 590.34,-407 590.34,-371 673.66,-371 673.66,-407"/>
<text text-anchor="middle" x="632" y="-384.8" font-family="Times,serif" font-size="14.00">AppModule</text>
</g>
<!-- AuthModule&#45;&gt;AppModule -->
<g id="edge1" class="edge">
<title>AuthModule&#45;&gt;AppModule</title>
<path fill="none" stroke="black" d="M684.25,-265C675.99,-265 669.89,-265 669.89,-265 669.89,-265 669.89,-360.97 669.89,-360.97"/>
<polygon fill="black" stroke="black" points="666.39,-360.97 669.89,-370.97 673.39,-360.97 666.39,-360.97"/>
</g>
<!-- BookModule -->
<g id="node2" class="node">
<title>BookModule</title>
<polygon fill="#8dd3c7" stroke="black" points="665.89,-198 662.89,-202 641.89,-202 638.89,-198 576.11,-198 576.11,-162 665.89,-162 665.89,-198"/>
<text text-anchor="middle" x="621" y="-175.8" font-family="Times,serif" font-size="14.00">BookModule</text>
</g>
<!-- BookModule&#45;&gt;AppModule -->
<g id="edge2" class="edge">
<title>BookModule&#45;&gt;AppModule</title>
<path fill="none" stroke="black" d="M640.69,-198.18C640.69,-198.18 640.69,-360.71 640.69,-360.71"/>
<polygon fill="black" stroke="black" points="637.19,-360.71 640.69,-370.71 644.19,-360.71 637.19,-360.71"/>
</g>
<!-- OrderModule -->
<g id="node3" class="node">
<title>OrderModule</title>
<polygon fill="#8dd3c7" stroke="black" points="776.19,-198 773.19,-202 752.19,-202 749.19,-198 683.81,-198 683.81,-162 776.19,-162 776.19,-198"/>
<text text-anchor="middle" x="730" y="-175.8" font-family="Times,serif" font-size="14.00">OrderModule</text>
</g>
<!-- OrderModule&#45;&gt;AppModule -->
<g id="edge3" class="edge">
<title>OrderModule&#45;&gt;AppModule</title>
<path fill="none" stroke="black" d="M683.9,-186C674.76,-186 667.91,-186 667.91,-186 667.91,-186 667.91,-360.99 667.91,-360.99"/>
<polygon fill="black" stroke="black" points="664.41,-360.99 667.91,-370.99 671.41,-360.99 664.41,-360.99"/>
</g>
<!-- PrismaModule -->
<g id="node4" class="node">
<title>PrismaModule</title>
<polygon fill="#8dd3c7" stroke="black" points="558.43,-198 555.43,-202 534.43,-202 531.43,-198 459.57,-198 459.57,-162 558.43,-162 558.43,-198"/>
<text text-anchor="middle" x="509" y="-175.8" font-family="Times,serif" font-size="14.00">PrismaModule</text>
</g>
<!-- PrismaModule&#45;&gt;AuthModule -->
<g id="edge7" class="edge">
<title>PrismaModule&#45;&gt;AuthModule</title>
<path fill="none" stroke="black" d="M538.53,-198.01C538.53,-220.49 538.53,-256 538.53,-256 538.53,-256 674.06,-256 674.06,-256"/>
<polygon fill="black" stroke="black" points="674.06,-259.5 684.06,-256 674.06,-252.5 674.06,-259.5"/>
</g>
<!-- PrismaModule&#45;&gt;UserModule -->
<g id="edge17" class="edge">
<title>PrismaModule&#45;&gt;UserModule</title>
<path fill="none" stroke="black" d="M518.84,-198.21C518.84,-235.06 518.84,-315 518.84,-315 518.84,-315 674.92,-315 674.92,-315"/>
<polygon fill="black" stroke="black" points="674.92,-318.5 684.92,-315 674.92,-311.5 674.92,-318.5"/>
</g>
<!-- PrismaModule&#45;&gt;AppModule -->
<g id="edge4" class="edge">
<title>PrismaModule&#45;&gt;AppModule</title>
<path fill="none" stroke="black" d="M499.16,-198.18C499.16,-249.03 499.16,-389 499.16,-389 499.16,-389 580.33,-389 580.33,-389"/>
<polygon fill="black" stroke="black" points="580.33,-392.5 590.33,-389 580.33,-385.5 580.33,-392.5"/>
</g>
<!-- PrismaService  -->
<g id="node13" class="node">
<title>PrismaService </title>
<polygon fill="#fb8072" stroke="black" points="282.36,-274 181.64,-274 181.64,-238 282.36,-238 282.36,-274"/>
<text text-anchor="middle" x="232" y="-251.8" font-family="Times,serif" font-size="14.00">PrismaService </text>
</g>
<!-- PrismaModule&#45;&gt;PrismaService  -->
<g id="edge14" class="edge">
<title>PrismaModule&#45;&gt;PrismaService </title>
<path fill="none" stroke="black" stroke-dasharray="5,2" d="M479.47,-198.31C479.47,-218.15 479.47,-247 479.47,-247 479.47,-247 292.38,-247 292.38,-247"/>
<polygon fill="black" stroke="black" points="292.38,-243.5 282.38,-247 292.38,-250.5 292.38,-243.5"/>
</g>
<!-- UserModule&#45;&gt;AppModule -->
<g id="edge5" class="edge">
<title>UserModule&#45;&gt;AppModule</title>
<path fill="none" stroke="black" d="M684.88,-333C677.34,-333 671.86,-333 671.86,-333 671.86,-333 671.86,-360.97 671.86,-360.97"/>
<polygon fill="black" stroke="black" points="668.36,-360.97 671.86,-370.97 675.36,-360.97 668.36,-360.97"/>
</g>
<!-- AppService -->
<g id="node7" class="node">
<title>AppService</title>
<ellipse fill="#fdb462" stroke="black" cx="379" cy="-324" rx="56.74" ry="18"/>
<text text-anchor="middle" x="379" y="-319.8" font-family="Times,serif" font-size="14.00">AppService</text>
</g>
<!-- AppService&#45;&gt;AppModule -->
<g id="edge6" class="edge">
<title>AppService&#45;&gt;AppModule</title>
<path fill="none" stroke="black" d="M435.63,-324C505.58,-324 615.43,-324 615.43,-324 615.43,-324 615.43,-360.89 615.43,-360.89"/>
<polygon fill="black" stroke="black" points="611.93,-360.89 615.43,-370.89 618.93,-360.89 611.93,-360.89"/>
</g>
<!-- AuthService -->
<g id="node8" class="node">
<title>AuthService</title>
<ellipse fill="#fdb462" stroke="black" cx="1007" cy="-180" rx="59.11" ry="18"/>
<text text-anchor="middle" x="1007" y="-175.8" font-family="Times,serif" font-size="14.00">AuthService</text>
</g>
<!-- AuthService&#45;&gt;AuthModule -->
<g id="edge8" class="edge">
<title>AuthService&#45;&gt;AuthModule</title>
<path fill="none" stroke="black" d="M1007,-198.2C1007,-222.36 1007,-262 1007,-262 1007,-262 781.59,-262 781.59,-262"/>
<polygon fill="black" stroke="black" points="781.59,-258.5 771.59,-262 781.59,-265.5 781.59,-258.5"/>
</g>
<!-- JwtStrategy -->
<g id="node9" class="node">
<title>JwtStrategy</title>
<ellipse fill="#fdb462" stroke="black" cx="873" cy="-180" rx="56.76" ry="18"/>
<text text-anchor="middle" x="873" y="-175.8" font-family="Times,serif" font-size="14.00">JwtStrategy</text>
</g>
<!-- JwtStrategy&#45;&gt;AuthModule -->
<g id="edge9" class="edge">
<title>JwtStrategy&#45;&gt;AuthModule</title>
<path fill="none" stroke="black" d="M873,-198.03C873,-218.77 873,-250 873,-250 873,-250 781.9,-250 781.9,-250"/>
<polygon fill="black" stroke="black" points="781.9,-246.5 771.9,-250 781.9,-253.5 781.9,-246.5"/>
</g>
<!-- BookService -->
<g id="node10" class="node">
<title>BookService</title>
<ellipse fill="#fdb462" stroke="black" cx="621" cy="-104" rx="60.84" ry="18"/>
<text text-anchor="middle" x="621" y="-99.8" font-family="Times,serif" font-size="14.00">BookService</text>
</g>
<!-- BookService&#45;&gt;BookModule -->
<g id="edge10" class="edge">
<title>BookService&#45;&gt;BookModule</title>
<path fill="none" stroke="black" d="M621,-122.01C621,-122.01 621,-151.85 621,-151.85"/>
<polygon fill="black" stroke="black" points="617.5,-151.85 621,-161.85 624.5,-151.85 617.5,-151.85"/>
</g>
<!-- BookService&#45;&gt;OrderModule -->
<g id="edge11" class="edge">
<title>BookService&#45;&gt;OrderModule</title>
<path fill="none" stroke="black" d="M677.87,-110.46C677.87,-127.79 677.87,-174 677.87,-174 677.87,-174 678.47,-174 678.47,-174"/>
<polygon fill="black" stroke="black" points="673.85,-177.5 683.85,-174 673.85,-170.5 673.85,-177.5"/>
</g>
<!-- OrderService -->
<g id="node11" class="node">
<title>OrderService</title>
<ellipse fill="#fdb462" stroke="black" cx="785" cy="-104" rx="62.52" ry="18"/>
<text text-anchor="middle" x="785" y="-99.8" font-family="Times,serif" font-size="14.00">OrderService</text>
</g>
<!-- OrderService&#45;&gt;OrderModule -->
<g id="edge12" class="edge">
<title>OrderService&#45;&gt;OrderModule</title>
<path fill="none" stroke="black" d="M740.36,-116.89C740.36,-116.89 740.36,-151.91 740.36,-151.91"/>
<polygon fill="black" stroke="black" points="736.86,-151.91 740.36,-161.91 743.86,-151.91 736.86,-151.91"/>
</g>
<!-- UserService -->
<g id="node12" class="node">
<title>UserService</title>
<ellipse fill="#fdb462" stroke="black" cx="924" cy="-104" rx="58.44" ry="18"/>
<text text-anchor="middle" x="924" y="-99.8" font-family="Times,serif" font-size="14.00">UserService</text>
</g>
<!-- UserService&#45;&gt;OrderModule -->
<g id="edge13" class="edge">
<title>UserService&#45;&gt;OrderModule</title>
<path fill="none" stroke="black" d="M897.7,-120.34C897.7,-130.64 897.7,-142 897.7,-142 897.7,-142 758.23,-142 758.23,-142 758.23,-142 758.23,-151.89 758.23,-151.89"/>
<polygon fill="black" stroke="black" points="754.73,-151.89 758.23,-161.89 761.73,-151.89 754.73,-151.89"/>
</g>
<!-- UserService&#45;&gt;UserModule -->
<g id="edge19" class="edge">
<title>UserService&#45;&gt;UserModule</title>
<path fill="none" stroke="black" d="M938.66,-121.51C938.66,-172.62 938.66,-318 938.66,-318 938.66,-318 781.14,-318 781.14,-318"/>
<polygon fill="black" stroke="black" points="781.14,-314.5 771.14,-318 781.14,-321.5 781.14,-314.5"/>
</g>
<!-- PrismaService -->
<g id="node14" class="node">
<title>PrismaService</title>
<ellipse fill="#fdb462" stroke="black" cx="91" cy="-256" rx="66.63" ry="18"/>
<text text-anchor="middle" x="91" y="-251.8" font-family="Times,serif" font-size="14.00">PrismaService</text>
</g>
<!-- PrismaService&#45;&gt;PrismaModule -->
<g id="edge15" class="edge">
<title>PrismaService&#45;&gt;PrismaModule</title>
<path fill="none" stroke="black" d="M91,-237.99C91,-215.51 91,-180 91,-180 91,-180 449.41,-180 449.41,-180"/>
<polygon fill="black" stroke="black" points="449.41,-183.5 459.41,-180 449.41,-176.5 449.41,-183.5"/>
</g>
<!-- UserController -->
<g id="node15" class="node">
<title>UserController</title>
<ellipse fill="#fdb462" stroke="black" cx="1203" cy="-256" rx="68.92" ry="18"/>
<text text-anchor="middle" x="1203" y="-251.8" font-family="Times,serif" font-size="14.00">UserController</text>
</g>
<!-- UserController&#45;&gt;UserModule -->
<g id="edge18" class="edge">
<title>UserController&#45;&gt;UserModule</title>
<path fill="none" stroke="black" d="M1203,-274.29C1203,-296.21 1203,-330 1203,-330 1203,-330 780.99,-330 780.99,-330"/>
<polygon fill="black" stroke="black" points="780.99,-326.5 770.99,-330 780.99,-333.5 780.99,-326.5"/>
</g>
</g>
</svg>
