<?xml version="1.0" encoding="UTF-8" standalone="no"?>
<!DOCTYPE svg PUBLIC "-//W3C//DTD SVG 1.1//EN"
 "http://www.w3.org/Graphics/SVG/1.1/DTD/svg11.dtd">
<!-- Generated by graphviz version 2.47.0 (20210316.0004)
 -->
<!-- Title: dependencies Pages: 1 -->
<svg width="720pt" height="211pt"
 viewBox="0.00 0.00 720.00 211.00" xmlns="http://www.w3.org/2000/svg" xmlns:xlink="http://www.w3.org/1999/xlink">
<g id="graph0" class="graph" transform="scale(1 1) rotate(0) translate(4 207)">
<title>dependencies</title>
<polygon fill="white" stroke="transparent" points="-4,4 -4,-207 716,-207 716,4 -4,4"/>
<text text-anchor="start" x="335.01" y="-42.4" font-family="Times-12" font-weight="bold" font-size="14.00">Legend</text>
<polygon fill="#ffffb3" stroke="transparent" points="122,-10 122,-30 142,-30 142,-10 122,-10"/>
<text text-anchor="start" x="145.63" y="-15.4" font-family="Times-12" font-size="14.00"> &#160;Declarations</text>
<polygon fill="#8dd3c7" stroke="transparent" points="235,-10 235,-30 255,-30 255,-10 235,-10"/>
<text text-anchor="start" x="258.73" y="-15.4" font-family="Times-12" font-size="14.00"> &#160;Module</text>
<polygon fill="#80b1d3" stroke="transparent" points="321,-10 321,-30 341,-30 341,-10 321,-10"/>
<text text-anchor="start" x="344.78" y="-15.4" font-family="Times-12" font-size="14.00"> &#160;Bootstrap</text>
<polygon fill="#fdb462" stroke="transparent" points="418,-10 418,-30 438,-30 438,-10 418,-10"/>
<text text-anchor="start" x="441.67" y="-15.4" font-family="Times-12" font-size="14.00"> &#160;Providers</text>
<polygon fill="#fb8072" stroke="transparent" points="514,-10 514,-30 534,-30 534,-10 514,-10"/>
<text text-anchor="start" x="537.73" y="-15.4" font-family="Times-12" font-size="14.00"> &#160;Exports</text>
<g id="clust1" class="cluster">
<title>cluster_AppModule</title>
<polygon fill="none" stroke="black" stroke-dasharray="1,5" points="8,-70 8,-195 704,-195 704,-70 8,-70"/>
</g>
<g id="clust3" class="cluster">
<title>cluster_AppModule_imports</title>
<polygon fill="none" stroke="black" points="154,-78 154,-130 696,-130 696,-78 154,-78"/>
</g>
<g id="clust6" class="cluster">
<title>cluster_AppModule_providers</title>
<polygon fill="none" stroke="black" points="16,-78 16,-130 146,-130 146,-78 16,-78"/>
</g>
<!-- AuthModule -->
<g id="node1" class="node">
<title>AuthModule</title>
<polygon fill="#8dd3c7" stroke="black" points="687.55,-122 684.55,-126 663.55,-126 660.55,-122 600.45,-122 600.45,-86 687.55,-86 687.55,-122"/>
<text text-anchor="middle" x="644" y="-99.8" font-family="Times,serif" font-size="14.00">AuthModule</text>
</g>
<!-- AppModule -->
<g id="node6" class="node">
<title>AppModule</title>
<polygon fill="#8dd3c7" stroke="black" points="412.66,-187 409.66,-191 388.66,-191 385.66,-187 329.34,-187 329.34,-151 412.66,-151 412.66,-187"/>
<text text-anchor="middle" x="371" y="-164.8" font-family="Times,serif" font-size="14.00">AppModule</text>
</g>
<!-- AuthModule&#45;&gt;AppModule -->
<g id="edge1" class="edge">
<title>AuthModule&#45;&gt;AppModule</title>
<path fill="none" stroke="black" d="M644,-122.28C644,-143.32 644,-175 644,-175 644,-175 422.76,-175 422.76,-175"/>
<polygon fill="black" stroke="black" points="422.76,-171.5 412.76,-175 422.76,-178.5 422.76,-171.5"/>
</g>
<!-- BookModule -->
<g id="node2" class="node">
<title>BookModule</title>
<polygon fill="#8dd3c7" stroke="black" points="581.89,-122 578.89,-126 557.89,-126 554.89,-122 492.11,-122 492.11,-86 581.89,-86 581.89,-122"/>
<text text-anchor="middle" x="537" y="-99.8" font-family="Times,serif" font-size="14.00">BookModule</text>
</g>
<!-- BookModule&#45;&gt;AppModule -->
<g id="edge2" class="edge">
<title>BookModule&#45;&gt;AppModule</title>
<path fill="none" stroke="black" d="M537,-122.02C537,-139.37 537,-163 537,-163 537,-163 422.89,-163 422.89,-163"/>
<polygon fill="black" stroke="black" points="422.89,-159.5 412.89,-163 422.89,-166.5 422.89,-159.5"/>
</g>
<!-- OrderModule -->
<g id="node3" class="node">
<title>OrderModule</title>
<polygon fill="#8dd3c7" stroke="black" points="474.19,-122 471.19,-126 450.19,-126 447.19,-122 381.81,-122 381.81,-86 474.19,-86 474.19,-122"/>
<text text-anchor="middle" x="428" y="-99.8" font-family="Times,serif" font-size="14.00">OrderModule</text>
</g>
<!-- OrderModule&#45;&gt;AppModule -->
<g id="edge3" class="edge">
<title>OrderModule&#45;&gt;AppModule</title>
<path fill="none" stroke="black" d="M397.37,-122.11C397.37,-122.11 397.37,-140.99 397.37,-140.99"/>
<polygon fill="black" stroke="black" points="393.87,-140.99 397.37,-150.99 400.87,-140.99 393.87,-140.99"/>
</g>
<!-- PrismaModule -->
<g id="node4" class="node">
<title>PrismaModule</title>
<polygon fill="#8dd3c7" stroke="black" points="364.43,-122 361.43,-126 340.43,-126 337.43,-122 265.57,-122 265.57,-86 364.43,-86 364.43,-122"/>
<text text-anchor="middle" x="315" y="-99.8" font-family="Times,serif" font-size="14.00">PrismaModule</text>
</g>
<!-- PrismaModule&#45;&gt;AppModule -->
<g id="edge4" class="edge">
<title>PrismaModule&#45;&gt;AppModule</title>
<path fill="none" stroke="black" d="M346.69,-122.11C346.69,-122.11 346.69,-140.99 346.69,-140.99"/>
<polygon fill="black" stroke="black" points="343.19,-140.99 346.69,-150.99 350.19,-140.99 343.19,-140.99"/>
</g>
<!-- UserModule -->
<g id="node5" class="node">
<title>UserModule</title>
<polygon fill="#8dd3c7" stroke="black" points="247.98,-122 244.98,-126 223.98,-126 220.98,-122 162.02,-122 162.02,-86 247.98,-86 247.98,-122"/>
<text text-anchor="middle" x="205" y="-99.8" font-family="Times,serif" font-size="14.00">UserModule</text>
</g>
<!-- UserModule&#45;&gt;AppModule -->
<g id="edge5" class="edge">
<title>UserModule&#45;&gt;AppModule</title>
<path fill="none" stroke="black" d="M205,-122.02C205,-139.37 205,-163 205,-163 205,-163 319.11,-163 319.11,-163"/>
<polygon fill="black" stroke="black" points="319.11,-166.5 329.11,-163 319.11,-159.5 319.11,-166.5"/>
</g>
<!-- AppService -->
<g id="node7" class="node">
<title>AppService</title>
<ellipse fill="#fdb462" stroke="black" cx="81" cy="-104" rx="56.74" ry="18"/>
<text text-anchor="middle" x="81" y="-99.8" font-family="Times,serif" font-size="14.00">AppService</text>
</g>
<!-- AppService&#45;&gt;AppModule -->
<g id="edge6" class="edge">
<title>AppService&#45;&gt;AppModule</title>
<path fill="none" stroke="black" d="M81,-122.28C81,-143.32 81,-175 81,-175 81,-175 319.14,-175 319.14,-175"/>
<polygon fill="black" stroke="black" points="319.14,-178.5 329.14,-175 319.14,-171.5 319.14,-178.5"/>
</g>
</g>
</svg>
