<?xml version="1.0" encoding="UTF-8" standalone="no"?>
<!DOCTYPE svg PUBLIC "-//W3C//DTD SVG 1.1//EN"
 "http://www.w3.org/Graphics/SVG/1.1/DTD/svg11.dtd">
<!-- Generated by graphviz version 2.47.0 (20210316.0004)
 -->
<!-- Title: dependencies Pages: 1 -->
<svg width="504pt" height="211pt"
 viewBox="0.00 0.00 504.00 211.00" xmlns="http://www.w3.org/2000/svg" xmlns:xlink="http://www.w3.org/1999/xlink">
<g id="graph0" class="graph" transform="scale(1 1) rotate(0) translate(4 207)">
<title>dependencies</title>
<polygon fill="white" stroke="transparent" points="-4,4 -4,-207 500,-207 500,4 -4,4"/>
<text text-anchor="start" x="227.01" y="-42.4" font-family="Times-12" font-weight="bold" font-size="14.00">Legend</text>
<polygon fill="#ffffb3" stroke="transparent" points="14,-10 14,-30 34,-30 34,-10 14,-10"/>
<text text-anchor="start" x="37.63" y="-15.4" font-family="Times-12" font-size="14.00"> &#160;Declarations</text>
<polygon fill="#8dd3c7" stroke="transparent" points="127,-10 127,-30 147,-30 147,-10 127,-10"/>
<text text-anchor="start" x="150.73" y="-15.4" font-family="Times-12" font-size="14.00"> &#160;Module</text>
<polygon fill="#80b1d3" stroke="transparent" points="213,-10 213,-30 233,-30 233,-10 213,-10"/>
<text text-anchor="start" x="236.78" y="-15.4" font-family="Times-12" font-size="14.00"> &#160;Bootstrap</text>
<polygon fill="#fdb462" stroke="transparent" points="310,-10 310,-30 330,-30 330,-10 310,-10"/>
<text text-anchor="start" x="333.67" y="-15.4" font-family="Times-12" font-size="14.00"> &#160;Providers</text>
<polygon fill="#fb8072" stroke="transparent" points="406,-10 406,-30 426,-30 426,-10 406,-10"/>
<text text-anchor="start" x="429.73" y="-15.4" font-family="Times-12" font-size="14.00"> &#160;Exports</text>
<g id="clust1" class="cluster">
<title>cluster_OrderModule</title>
<polygon fill="none" stroke="black" stroke-dasharray="1,5" points="32.5,-70 32.5,-195 463.5,-195 463.5,-70 32.5,-70"/>
</g>
<g id="clust6" class="cluster">
<title>cluster_OrderModule_providers</title>
<polygon fill="none" stroke="black" points="40.5,-78 40.5,-130 455.5,-130 455.5,-78 40.5,-78"/>
</g>
<!-- BookService -->
<g id="node1" class="node">
<title>BookService</title>
<ellipse fill="#fdb462" stroke="black" cx="386.5" cy="-104" rx="60.84" ry="18"/>
<text text-anchor="middle" x="386.5" y="-99.8" font-family="Times,serif" font-size="14.00">BookService</text>
</g>
<!-- OrderModule -->
<g id="node4" class="node">
<title>OrderModule</title>
<polygon fill="#8dd3c7" stroke="black" points="291.69,-187 288.69,-191 267.69,-191 264.69,-187 199.31,-187 199.31,-151 291.69,-151 291.69,-187"/>
<text text-anchor="middle" x="245.5" y="-164.8" font-family="Times,serif" font-size="14.00">OrderModule</text>
</g>
<!-- BookService&#45;&gt;OrderModule -->
<g id="edge1" class="edge">
<title>BookService&#45;&gt;OrderModule</title>
<path fill="none" stroke="black" d="M386.5,-122.11C386.5,-141.34 386.5,-169 386.5,-169 386.5,-169 301.67,-169 301.67,-169"/>
<polygon fill="black" stroke="black" points="301.67,-165.5 291.67,-169 301.67,-172.5 301.67,-165.5"/>
</g>
<!-- OrderService -->
<g id="node2" class="node">
<title>OrderService</title>
<ellipse fill="#fdb462" stroke="black" cx="245.5" cy="-104" rx="62.52" ry="18"/>
<text text-anchor="middle" x="245.5" y="-99.8" font-family="Times,serif" font-size="14.00">OrderService</text>
</g>
<!-- OrderService&#45;&gt;OrderModule -->
<g id="edge2" class="edge">
<title>OrderService&#45;&gt;OrderModule</title>
<path fill="none" stroke="black" d="M245.5,-122.11C245.5,-122.11 245.5,-140.99 245.5,-140.99"/>
<polygon fill="black" stroke="black" points="242,-140.99 245.5,-150.99 249,-140.99 242,-140.99"/>
</g>
<!-- UserService -->
<g id="node3" class="node">
<title>UserService</title>
<ellipse fill="#fdb462" stroke="black" cx="106.5" cy="-104" rx="58.44" ry="18"/>
<text text-anchor="middle" x="106.5" y="-99.8" font-family="Times,serif" font-size="14.00">UserService</text>
</g>
<!-- UserService&#45;&gt;OrderModule -->
<g id="edge3" class="edge">
<title>UserService&#45;&gt;OrderModule</title>
<path fill="none" stroke="black" d="M106.5,-122.11C106.5,-141.34 106.5,-169 106.5,-169 106.5,-169 189.22,-169 189.22,-169"/>
<polygon fill="black" stroke="black" points="189.22,-172.5 199.22,-169 189.21,-165.5 189.22,-172.5"/>
</g>
</g>
</svg>
